<?xml version="1.0" encoding="UTF-8"?>
<svg id="Layer_1" data-name="Layer 1" xmlns="http://www.w3.org/2000/svg" viewBox="0 0 595.28 420.94">
  <g>
    <path d="M97.89,258.13h-2.99v-18.88h2.99v18.88Z"/>
    <path d="M126.91,257.54v-18.29h2.97v18.88h-5.8l-7.6-18.29v18.29h-2.99v-18.88h5.8l7.63,18.29Z"/>
    <path d="M148.46,258.13h-2.99v-18.88h11.54v2.67h-8.55v5.72h8.28v2.67h-8.28v7.82Z"/>
    <path d="M181.17,250.64l5.07,7.5h-3.59l-4.93-7.34h-3.05v7.34h-2.99v-18.88h7.82c1.85,0,3.36.54,4.52,1.63s1.74,2.47,1.74,4.14c0,1.38-.41,2.59-1.24,3.61-.83,1.03-1.94,1.69-3.34,2ZM179.5,241.92h-4.83v6.15h4.83c.93,0,1.7-.29,2.29-.88s.89-1.32.89-2.2-.3-1.61-.89-2.2c-.59-.58-1.36-.88-2.29-.88Z"/>
    <path d="M218.77,258.13h-3.18l-1.62-4.56h-9.63l-1.62,4.56h-3.05l6.91-18.88h5.29l6.9,18.88ZM209.16,240.12l-3.86,10.79h7.69l-3.83-10.79Z"/>
    <path d="M253.18,253.23l2.99-.62c.16,1.01.61,1.79,1.35,2.35s1.72.84,2.94.84c1.12,0,2.03-.26,2.74-.77.71-.51,1.06-1.16,1.06-1.95,0-.52-.15-.98-.46-1.36s-.71-.69-1.2-.9c-.5-.21-1.06-.43-1.7-.63-.64-.21-1.29-.39-1.96-.54s-1.32-.37-1.95-.66c-.64-.29-1.2-.61-1.7-.97-.5-.36-.9-.85-1.2-1.48-.31-.63-.46-1.36-.46-2.18,0-1.53.63-2.8,1.9-3.82,1.27-1.01,2.85-1.52,4.73-1.52s3.42.48,4.66,1.44c1.24.96,1.98,2.21,2.21,3.73l-3.02.62c-.16-.95-.59-1.73-1.29-2.32-.7-.59-1.59-.89-2.67-.89-1.01,0-1.83.25-2.48.74s-.97,1.11-.97,1.85c0,.65.26,1.19.78,1.62.52.43,1.18.74,1.97.93.79.19,1.65.43,2.56.73.92.3,1.77.62,2.56.97.79.35,1.45.92,1.97,1.7.52.78.78,1.74.78,2.87,0,1.56-.67,2.86-2,3.88-1.33,1.03-2.98,1.54-4.96,1.54s-3.61-.47-4.91-1.4c-1.29-.93-2.06-2.19-2.29-3.78Z"/>
    <path d="M284.77,255.6c-1.9-1.87-2.85-4.17-2.85-6.9s.95-5.03,2.85-6.91c1.9-1.87,4.24-2.8,7.03-2.8s5.1.93,7,2.8c1.9,1.87,2.85,4.17,2.85,6.91s-.95,5.03-2.85,6.9-4.23,2.8-7,2.8-5.13-.93-7.03-2.8ZM286.96,243.75c-1.3,1.34-1.95,2.99-1.95,4.95s.65,3.61,1.95,4.95c1.3,1.34,2.92,2.01,4.84,2.01s3.53-.67,4.83-2.01c1.29-1.34,1.94-2.99,1.94-4.95s-.65-3.61-1.94-4.95-2.9-2.01-4.83-2.01-3.54.67-4.84,2.01Z"/>
    <path d="M328.77,258.13h-12.08v-18.88h2.99v16.21h9.09v2.67Z"/>
    <path d="M342.47,250.93v-11.68h2.99v11.68c0,1.39.46,2.52,1.38,3.4.92.88,2.1,1.32,3.56,1.32s2.69-.44,3.6-1.32c.91-.88,1.36-2.01,1.36-3.4v-11.68h2.97v11.68c0,2.2-.74,3.99-2.23,5.38-1.48,1.39-3.38,2.09-5.7,2.09s-4.2-.7-5.69-2.1c-1.49-1.4-2.24-3.19-2.24-5.37Z"/>
    <path d="M381.39,258.13h-2.97v-16.21h-6.1v-2.67h15.16v2.67h-6.1v16.21Z"/>
    <path d="M404.75,258.13h-2.99v-18.88h2.99v18.88Z"/>
    <path d="M422.64,255.6c-1.9-1.87-2.85-4.17-2.85-6.9s.95-5.03,2.85-6.91c1.9-1.87,4.24-2.8,7.03-2.8s5.1.93,7,2.8c1.9,1.87,2.85,4.17,2.85,6.91s-.95,5.03-2.85,6.9-4.23,2.8-7,2.8-5.13-.93-7.03-2.8ZM424.82,243.75c-1.3,1.34-1.95,2.99-1.95,4.95s.65,3.61,1.95,4.95c1.3,1.34,2.92,2.01,4.84,2.01s3.53-.67,4.83-2.01c1.29-1.34,1.94-2.99,1.94-4.95s-.65-3.61-1.94-4.95-2.9-2.01-4.83-2.01-3.54.67-4.84,2.01Z"/>
    <path d="M467.99,257.54v-18.29h2.97v18.88h-5.8l-7.6-18.29v18.29h-2.99v-18.88h5.8l7.63,18.29Z"/>
    <path d="M486.22,253.23l2.99-.62c.16,1.01.61,1.79,1.35,2.35s1.72.84,2.94.84c1.12,0,2.03-.26,2.74-.77.71-.51,1.06-1.16,1.06-1.95,0-.52-.15-.98-.46-1.36s-.71-.69-1.2-.9c-.5-.21-1.06-.43-1.7-.63-.64-.21-1.29-.39-1.96-.54s-1.32-.37-1.95-.66c-.64-.29-1.2-.61-1.7-.97-.5-.36-.9-.85-1.2-1.48-.31-.63-.46-1.36-.46-2.18,0-1.53.63-2.8,1.9-3.82,1.27-1.01,2.85-1.52,4.73-1.52s3.42.48,4.66,1.44c1.24.96,1.98,2.21,2.21,3.73l-3.02.62c-.16-.95-.59-1.73-1.29-2.32-.7-.59-1.59-.89-2.67-.89-1.01,0-1.83.25-2.48.74s-.97,1.11-.97,1.85c0,.65.26,1.19.78,1.62.52.43,1.18.74,1.97.93.79.19,1.65.43,2.56.73.92.3,1.77.62,2.56.97.79.35,1.45.92,1.97,1.7.52.78.78,1.74.78,2.87,0,1.56-.67,2.86-2,3.88-1.33,1.03-2.98,1.54-4.96,1.54s-3.61-.47-4.91-1.4c-1.29-.93-2.06-2.19-2.29-3.78Z"/>
  </g>
  <g>
    <path d="M388.36,176.63h41.35l-4.22-14.08h-37.12c-16.75,0-30.34,13.58-30.34,30.34h0c0,16.75,13.58,30.34,30.34,30.34h37.12l4.22-14.08h-41.35c-8.96,0-16.25-7.29-16.25-16.25s7.29-16.25,16.25-16.25Z"/>
    <polygon points="237.19 162.55 209.66 162.55 209.66 176.52 237.19 176.52 237.19 223.22 251.17 223.22 251.17 176.52 278.7 176.52 278.7 162.55 251.17 162.55 237.19 162.55"/>
    <rect x="94.9" y="162.55" width="13.97" height="60.67"/>
    <polygon points="187.66 185.59 201.63 192.33 201.63 162.55 187.66 162.55 187.66 185.59"/>
    <rect x="286.7" y="162.54" width="66.92" height="13.98"/>
    <rect x="286.7" y="185.89" width="62.56" height="13.98"/>
    <rect x="286.7" y="209.24" width="66.92" height="13.98"/>
    <path d="M486.41,162.55v23.35h-31.19c-.3-1.63-.69-3.25-1.2-4.84l-6.01-18.51h-14.1l6.01,18.51c2.5,7.69,2.5,15.97,0,23.65l-6.01,18.51h14.1l6.01-18.51c.52-1.59.9-3.21,1.2-4.84h31.19v23.35h13.97v-60.67h-13.97Z"/>
    <polygon points="116.86 223.22 130.82 223.22 130.82 182.53 116.86 175.78 116.86 223.22"/>
    <polygon points="130.82 162.58 130.76 162.55 116.86 162.55 116.86 171.34 130.82 178.1 130.84 178.1 187.66 205.52 187.66 223.22 201.63 223.22 201.63 196.76 187.66 190.02 130.82 162.58"/>
  </g>
</svg>