<svg width="40" height="40" viewBox="0 0 40 40" fill="none" xmlns="http://www.w3.org/2000/svg">
<path d="M19.9999 19.2672L3.73799 3L3 3.738L19.2671 20L3 36.262L3.73799 37L19.9999 20.7328L36.2617 37L36.9997 36.262L20.7326 20L36.9997 3.738L36.2617 3L19.9999 19.2672Z" fill="#45474B"/>
<path d="M19.6313 25.3478L8.71729 36.2619L9.45528 36.9999L20.0003 26.4496L30.5453 36.9999L31.2833 36.2619L20.3693 25.3478C20.321 25.2991 20.2635 25.2604 20.2001 25.2341C20.1368 25.2077 20.0689 25.1941 20.0003 25.1941C19.9317 25.1941 19.8637 25.2077 19.8004 25.2341C19.7371 25.2604 19.6796 25.2991 19.6313 25.3478Z" fill="#45474B"/>
<path d="M19.6307 31.0646L14.4336 36.2618L15.1716 36.9998L19.9997 32.1664L24.8279 36.9998L25.5659 36.2618L20.3687 31.0646C20.3204 31.0159 20.2629 30.9772 20.1996 30.9509C20.1363 30.9245 20.0683 30.9109 19.9997 30.9109C19.9311 30.9109 19.8632 30.9245 19.7999 30.9509C19.7365 30.9772 19.6791 31.0159 19.6307 31.0646Z" fill="#45474B"/>
<path d="M25.3476 19.6309C25.2989 19.6792 25.2602 19.7367 25.2338 19.8C25.2074 19.8633 25.1938 19.9313 25.1938 19.9999C25.1938 20.0685 25.2074 20.1364 25.2338 20.1997C25.2602 20.2631 25.2989 20.3206 25.3476 20.3689L36.2616 31.283L36.9996 30.545L26.4494 19.9999L36.9996 9.4548L36.2616 8.7168L25.3476 19.6309Z" fill="#45474B"/>
<path d="M36.262 14.4338L31.0649 19.631C31.0162 19.6793 30.9775 19.7368 30.9511 19.8001C30.9247 19.8635 30.9111 19.9314 30.9111 20C30.9111 20.0686 30.9247 20.1366 30.9511 20.1999C30.9775 20.2632 31.0162 20.3207 31.0649 20.369L36.262 25.5662L37 24.8282L32.1667 20L37 15.1718L36.262 14.4338Z" fill="#45474B"/>
<path d="M20.0003 14.8028C20.0687 14.8032 20.1365 14.7901 20.1998 14.7642C20.2631 14.7384 20.3207 14.7002 20.3693 14.6521L31.2833 3.738L30.5453 3L20.0003 13.5503L9.45528 3L8.71729 3.738L19.6313 14.6521C19.6798 14.7002 19.7374 14.7384 19.8008 14.7642C19.8641 14.7901 19.9319 14.8032 20.0003 14.8028Z" fill="#45474B"/>
<path d="M19.9997 9.0859C20.0681 9.08629 20.1359 9.07319 20.1993 9.04732C20.2626 9.02146 20.3202 8.98335 20.3687 8.93518L25.5659 3.738L24.8279 3L19.9997 7.83338L15.1716 3L14.4336 3.738L19.6307 8.93518C19.6793 8.98335 19.7369 9.02146 19.8002 9.04732C19.8635 9.07319 19.9313 9.08629 19.9997 9.0859Z" fill="#45474B"/>
<path d="M14.652 20.3689C14.7007 20.3206 14.7394 20.2631 14.7658 20.1997C14.7921 20.1364 14.8057 20.0685 14.8057 19.9999C14.8057 19.9313 14.7921 19.8633 14.7658 19.8C14.7394 19.7367 14.7007 19.6792 14.652 19.6309L3.73799 8.7168L3 9.4548L13.5502 19.9999L3 30.545L3.73799 31.283L14.652 20.3689Z" fill="#45474B"/>
<path d="M3.73799 25.5662L8.93514 20.369C8.98385 20.3207 9.02251 20.2632 9.0489 20.1999C9.07528 20.1366 9.08887 20.0686 9.08887 20C9.08887 19.9314 9.07528 19.8635 9.0489 19.8001C9.02251 19.7368 8.98385 19.6793 8.93514 19.631L3.73799 14.4338L3 15.1718L7.83334 20L3 24.8282L3.73799 25.5662Z" fill="#45474B"/>
</svg>
