<svg viewBox="0 0 100 100" xmlns="http://www.w3.org/2000/svg"><g><path d="m50 48.59-31.29-31.3-1.42 1.42 31.3 31.29-31.3 31.29 1.42 1.42 31.29-31.3 31.29 31.3 1.42-1.42-31.3-31.29 31.3-31.29-1.42-1.42z"/><path d="m49.29 60.29-21 21 1.42 1.42 20.29-20.3 20.29 20.3 1.42-1.42-21-21a1 1 0 0 0 -1.42 0z"/><path d="m49.29 71.29-10 10 1.42 1.42 9.29-9.3 9.29 9.3 1.42-1.42-10-10a1 1 0 0 0 -1.42 0z"/><path d="m60.29 49.29a1 1 0 0 0 0 1.42l21 21 1.42-1.42-20.3-20.29 20.3-20.29-1.42-1.42z"/><path d="m81.29 39.29-10 10a1 1 0 0 0 0 1.42l10 10 1.42-1.42-9.3-9.29 9.3-9.29z"/><path d="m50 40a1 1 0 0 0 .71-.29l21-21-1.42-1.42-20.29 20.3-20.29-20.3-1.42 1.42 21 21a1 1 0 0 0 .71.29z"/><path d="m50 29a1 1 0 0 0 .71-.29l10-10-1.42-1.42-9.29 9.3-9.29-9.3-1.42 1.42 10 10a1 1 0 0 0 .71.29z"/><path d="m39.71 50.71a1 1 0 0 0 0-1.42l-21-21-1.42 1.42 20.3 20.29-20.3 20.29 1.42 1.42z"/><path d="m18.71 60.71 10-10a1 1 0 0 0 0-1.42l-10-10-1.42 1.42 9.3 9.29-9.3 9.29z"/></g></svg>