<svg width="40" height="40" viewBox="0 0 40 40" fill="none" xmlns="http://www.w3.org/2000/svg">
<path d="M22.2322 18.9083L22.1057 18.4282C22.6316 17.9614 22.9444 17.2946 22.951 16.5811C23.7497 16.4878 24.0359 15.3742 23.3637 14.9208C24.8546 12.1202 21.6798 9.49298 19.2171 11.5734C17.4865 11.4801 16.588 13.2738 17.5132 14.9075C16.821 15.3609 17.0938 16.4878 17.9059 16.5811C17.9192 17.368 18.2919 18.0948 18.9042 18.5549L18.8177 18.9083C15.8292 19.5284 14.6511 21.1421 14.8175 24.4761C14.8242 25.4964 15.6628 26.3299 16.6812 26.3365C19.0573 26.3499 21.9726 26.3232 24.3887 26.3099C25.4004 26.3032 26.2324 25.4697 26.2457 24.4495C26.3921 21.1221 25.234 19.5351 22.2322 18.9083ZM18.4783 14.4674C18.1122 13.8539 18.1255 13.2004 18.425 12.887C18.9641 12.4069 19.4101 12.8604 19.7961 12.4869C21.3802 10.96 23.4768 12.647 22.3853 14.494C22.0991 14.294 21.7663 14.1073 21.4135 14.0673C21.0275 14.0339 20.8744 14.114 20.4018 14.0873C19.9692 14.0806 19.8827 14.0073 19.5099 14.0273C19.1372 14.0606 18.7778 14.234 18.4783 14.4674ZM18.9641 16.0744C18.9708 16.0544 18.9641 15.4876 18.9641 15.4676C19.1172 15.2875 19.3236 15.1408 19.5565 15.0875C19.8427 15.0742 19.9492 15.1408 20.3685 15.1475C21.0674 15.1742 21.4401 14.9741 21.8994 15.4676V16.061V16.5345C21.8994 17.0679 21.6065 17.5747 21.1207 17.8281C20.1955 18.3682 18.9309 17.6147 18.9641 16.5345V16.0744ZM19.9958 25.283C19.47 25.283 18.9575 25.283 18.465 25.283V24.8896C18.465 24.5962 18.2253 24.3561 17.9325 24.3561C17.6396 24.3561 17.4 24.5962 17.4 24.8896V25.283C17.1537 25.283 16.9075 25.283 16.6812 25.283C16.2419 25.283 15.8758 24.9162 15.8758 24.4761L15.3433 24.4828L15.8758 24.4361C15.7826 22.2357 16.182 20.5753 18.6779 20.0619L19.0906 19.9552L19.9958 20.862V25.283ZM20.5283 19.8818L19.8427 19.195L19.8827 19.0217C20.302 19.1083 20.7413 19.095 21.1473 18.975L21.2072 19.2017L20.5283 19.8818ZM25.1808 24.4295C25.1874 24.8762 24.8213 25.2496 24.3754 25.2563L23.6499 25.263V24.8962C23.6499 24.6028 23.4103 24.3628 23.1174 24.3628C22.8246 24.3628 22.585 24.6028 22.585 24.8962V25.2696L21.0541 25.2763V20.8487C21.0608 20.842 21.9127 19.9885 21.9526 19.9485C24.7415 20.4953 25.2806 21.8689 25.1808 24.4295ZM20.5283 7.51257C19.5632 6.86576 18.5848 6.28564 17.6197 5.77887C18.1055 3.30501 14.8308 1.93806 13.4264 4.0185C3.37604 1.15122 1.61222 9.23293 7.10334 18.2615C6.17151 19.1017 6.17817 20.7554 7.10334 21.5955C-1.44283 36.572 9.18664 40.1995 20.5283 32.3311C21.5999 33.0446 22.6648 33.6714 23.7165 34.2115C23.2106 36.7321 26.5718 38.079 27.943 35.9252C38.4327 38.7592 39.3379 29.2972 32.9149 19.9219C42.2398 5.88556 34.5389 -1.82274 20.5283 7.51257ZM34.7653 5.65884C37.0083 7.90598 35.9966 13.2004 32.2759 18.975C29.4672 14.9675 25.4803 10.9666 21.4801 8.15937C27.2441 4.43192 32.5289 3.41837 34.7653 5.65884ZM15.3433 4.0585C17.0073 4.10518 17.0073 6.53903 15.3433 6.5857C13.6794 6.53236 13.686 4.10518 15.3433 4.0585ZM13.0471 5.00537C12.7409 7.34586 15.7294 8.59279 17.1804 6.73907C17.9791 7.15916 18.7844 7.63926 19.5831 8.15937C15.9623 10.7066 12.3548 14.2206 9.65255 17.8014C9.13339 17.5747 8.54101 17.548 8.00854 17.7147C3.19633 9.593 3.96176 2.45817 13.0471 5.00537ZM9.46618 20.9354C7.91536 21.9756 6.54424 19.5684 8.23484 18.7616C9.59264 18.2082 10.6509 20.0419 9.46618 20.9354ZM6.29132 34.1849C4.20802 32.0978 4.86696 27.5035 8.00854 22.1357C8.54767 22.3024 9.14004 22.2757 9.65255 22.049C12.3548 25.6297 15.9623 29.1438 19.5831 31.691C13.8191 35.4185 8.53436 36.432 6.29132 34.1849ZM20.5283 31.0509C16.8742 28.5437 13.2135 25.0096 10.4978 21.4155C11.2167 20.582 11.21 19.2617 10.4978 18.4282C13.2135 14.8341 16.8742 11.3 20.5283 8.79284C24.6616 11.6268 28.8082 15.781 31.637 19.9219C28.8082 24.0627 24.6616 28.2169 20.5283 31.0509ZM25.9928 35.9519C24.3288 35.9052 24.3288 33.4714 25.9928 33.4247C27.6634 33.4714 27.6501 35.9052 25.9928 35.9519ZM34.7653 34.1849C33.4873 35.4651 31.2043 35.7252 28.3024 34.925C28.5353 32.6179 25.5934 31.4443 24.1624 33.258C23.2772 32.7979 22.3786 32.2711 21.4734 31.691C25.4736 28.8771 29.4672 24.8829 32.2693 20.8754C35.9966 26.6499 37.0083 31.9444 34.7653 34.1849Z" fill="#45474B"/>
</svg>
