<svg width="40" height="40" viewBox="0 0 40 40" fill="none" xmlns="http://www.w3.org/2000/svg">
<path d="M11.3478 14.743H28.6522C28.8803 14.743 29.0652 14.5555 29.0652 14.3243V3.41866C29.0652 3.18748 28.8803 3 28.6522 3H11.3478C11.1197 3 10.9348 3.18748 10.9348 3.41866V14.3242C10.9348 14.5555 11.1197 14.743 11.3478 14.743ZM11.7609 3.83732H28.2391V13.9055H11.7609V3.83732ZM31.4886 27.6031L25.5981 17.423C25.524 17.2949 25.3883 17.2161 25.2418 17.2161H14.7581C14.6116 17.2161 14.476 17.2948 14.4019 17.423L8.51128 27.6031L8.51268 27.6039C8.47666 27.666 8.45453 27.7375 8.45453 27.8148V29.617C8.45453 29.8482 8.63949 30.0356 8.86757 30.0356H17.697V34.1735H16.2204C15.4516 34.1735 14.8261 34.8076 14.8261 35.5868C14.8261 36.366 15.4516 37 16.2204 37H23.7792C24.548 37 25.1735 36.366 25.1735 35.5868C25.1735 34.8076 24.548 34.1735 23.7792 34.1735H22.3027V30.0356H31.1321C31.3602 30.0356 31.5451 29.8482 31.5451 29.617V27.8148C31.5451 27.7375 31.523 27.666 31.487 27.6039L31.4886 27.6031ZM14.9947 18.0535H25.0052L30.4112 27.3962H9.58874L14.9947 18.0535ZM30.7192 29.1984H21.8898C21.6618 29.1984 21.4768 29.3859 21.4768 29.6171V34.5923C21.4768 34.8235 21.6618 35.0109 21.8898 35.0109H23.7793C24.0927 35.0109 24.3476 35.2693 24.3476 35.5868C24.3476 35.9044 24.0927 36.1628 23.7793 36.1628H16.2206C15.9072 36.1628 15.6524 35.9044 15.6524 35.5868C15.6524 35.2693 15.9072 35.0109 16.2206 35.0109H18.1102C18.3382 35.0109 18.5232 34.8235 18.5232 34.5923V29.6171C18.5232 29.3859 18.3382 29.1984 18.1102 29.1984H9.2807V28.2335H30.7192V29.1984ZM6.2882 22.3334C6.33454 22.3505 6.38237 22.3588 6.42979 22.3588H6.42987H10.201C10.3402 22.3588 10.4699 22.2878 10.5463 22.1698L12.5901 19.0133C12.6734 18.8847 12.6803 18.7202 12.6083 18.5848C12.5361 18.4494 12.3966 18.365 12.2448 18.365H9.46822V14.778C9.46822 14.6227 9.38346 14.4802 9.24798 14.4078C9.11242 14.3352 8.94861 14.3446 8.82222 14.4323L6.19691 16.2502C6.08423 16.3283 6.01683 16.4576 6.01683 16.5959V21.9402C6.01683 22.116 6.12521 22.2731 6.2882 22.3334ZM9.24716 19.2023H11.4797L9.97791 21.5215H7.31824L9.24716 19.2023ZM6.84291 16.8169L8.64213 15.5711V18.6308L6.84291 20.7941V16.8169ZM9.50283 23.998C9.5861 23.8693 9.59304 23.7047 9.521 23.5693C9.44889 23.4339 9.30936 23.3495 9.15753 23.3495H5.3225V18.4335C5.3225 18.2782 5.23774 18.1357 5.10226 18.0633C4.96679 17.9907 4.80289 18.0002 4.6765 18.0878L1.18009 20.5089C1.06741 20.587 1 20.7163 1 20.8546V27.9722V32.1382C1 32.3694 1.18496 32.5569 1.41304 32.5569C1.64113 32.5569 1.82609 32.3694 1.82609 32.1382V28.3909H6.02236V32.1382C6.02236 32.3694 6.20732 32.5569 6.4354 32.5569C6.66349 32.5569 6.84845 32.3694 6.84845 32.1382V28.0973L9.50283 23.998ZM5.10144 24.1869H8.39232L6.21244 27.5536H2.30142L5.10144 24.1869ZM1.82609 21.0755L4.49641 19.2265V23.6154L1.82609 26.826V21.0755ZM27.7552 18.365C27.6035 18.365 27.4639 18.4494 27.3917 18.5848C27.3196 18.7202 27.3266 18.8847 27.4099 19.0133L29.4537 22.1698C29.5301 22.2878 29.6599 22.3588 29.799 22.3588H33.5701H33.5702C33.6176 22.3588 33.6655 22.3505 33.7118 22.3334C33.8748 22.2731 33.9832 22.116 33.9832 21.9402V16.5959C33.9832 16.4575 33.9158 16.3282 33.8031 16.2502L31.1778 14.4323C31.0513 14.3447 30.8874 14.3353 30.752 14.4078C30.6165 14.4802 30.5318 14.6227 30.5318 14.778V18.365H27.7552ZM31.3579 15.571L33.1571 16.8168V20.7939L31.3579 18.6306V15.571ZM32.6817 21.5215H30.022L28.5203 19.2023H30.7528L32.6817 21.5215ZM38.82 20.5088L35.3236 18.0877C35.1971 18.0001 35.0332 17.9907 34.8978 18.0632C34.7623 18.1356 34.6776 18.2781 34.6776 18.4334V23.3495H30.8426C30.6908 23.3495 30.5512 23.4339 30.4791 23.5693C30.407 23.7047 30.4139 23.8693 30.4973 23.9979L33.1516 28.0972V32.1382C33.1516 32.3694 33.3365 32.5568 33.5646 32.5568C33.7927 32.5568 33.9776 32.3694 33.9776 32.1382V28.3909H38.1739V32.1382C38.1739 32.3694 38.3589 32.5569 38.587 32.5569C38.815 32.5569 39 32.3694 39 32.1382V27.9722V20.8546C39 20.7162 38.9326 20.5869 38.82 20.5088ZM35.5036 19.2265L38.1739 21.0755V26.826L35.5036 23.6153V19.2265ZM34.8986 24.1869L37.6986 27.5536H33.7876L31.6077 24.1869H34.8986Z" fill="#45474B"/>
</svg>
