<svg width="40" height="40" viewBox="0 0 40 40" fill="none" xmlns="http://www.w3.org/2000/svg">
<path d="M34.8218 24.4413C37.4341 19.4204 38.6114 13.7666 38.225 8.07018C38.2145 7.9144 38.1351 7.7721 38.0093 7.68073C37.8835 7.58936 37.7224 7.5594 37.5719 7.5976C30.075 9.51564 24.201 7.66051 20.5851 2.23367C20.4878 2.08763 20.3245 2 20.1485 2C19.9733 2 19.8092 2.08763 19.7119 2.23367C16.0952 7.66126 10.2205 9.51639 2.72436 7.59834C2.57383 7.56015 2.41355 7.59011 2.28698 7.68148C2.16041 7.77285 2.08177 7.91515 2.07129 8.07093C1.68483 13.8003 2.8749 19.4796 5.51343 24.5155L3.20818 28.5073C3.06364 28.7582 3.14901 29.0788 3.39991 29.2233L5.61678 30.504C5.86842 30.6485 6.14778 30.7227 6.43088 30.7227C6.57393 30.7227 6.71773 30.704 6.85928 30.6658C7.20828 30.5722 7.50861 30.3714 7.72505 30.0928L10.0752 31.8528C9.99585 32.4512 10.2258 33.0744 10.7328 33.4706C11.0444 33.714 11.4203 33.8428 11.8105 33.8428C11.8794 33.8428 11.9483 33.8383 12.018 33.83C12.0757 34.2719 12.2996 34.6928 12.6771 34.9879C12.9879 35.2313 13.3638 35.3609 13.754 35.3609C13.8229 35.3609 13.8918 35.3564 13.9615 35.3489C14.0214 35.8103 14.2551 36.2214 14.6206 36.5075C14.9404 36.7569 15.3208 36.8782 15.699 36.8782C15.7679 36.8782 15.8361 36.8738 15.9043 36.8663C15.9642 37.3284 16.1971 37.7395 16.5641 38.0264C16.8839 38.275 17.2643 38.3956 17.6418 38.3956C18.1646 38.3956 18.6828 38.1642 19.0296 37.7231L19.1801 37.5298L21.2592 38.7289C21.5685 38.9086 21.913 39 22.2628 39C22.438 39 22.6148 38.9768 22.7893 38.9303C23.3113 38.791 23.7464 38.457 24.0146 37.9912C24.195 37.6781 24.2864 37.3299 24.2842 36.9764C25.1679 37.2572 26.1625 36.8985 26.6448 36.0634C26.8343 35.7346 26.9204 35.3729 26.9137 35.0179C27.7698 35.2418 28.7082 34.8771 29.1733 34.0742C29.3583 33.7544 29.4436 33.4009 29.4391 33.0519C29.7979 33.1627 30.1821 33.171 30.5551 33.0714C31.0771 32.9321 31.5122 32.5988 31.7803 32.1337C32.0485 31.6686 32.1196 31.1249 31.9803 30.6036C31.9256 30.3991 31.841 30.2089 31.7309 30.0359L32.3091 29.5371L32.4409 29.7655C32.745 30.2891 33.2969 30.5826 33.8631 30.5826C34.141 30.5826 34.4219 30.5122 34.6787 30.3639L36.8949 29.084C37.1458 28.9395 37.2319 28.6189 37.0866 28.368L34.8203 24.4428L34.8218 24.4413ZM3.08161 8.7652C4.87683 9.18161 6.58217 9.38907 8.1909 9.38907C13.2006 9.38907 17.2681 7.3804 20.1493 3.44171C23.9539 8.64611 29.8286 10.4803 37.2147 8.76595C37.4536 13.8325 36.4155 18.8452 34.1957 23.3583L33.4055 21.99C34.9858 18.5052 35.8396 14.7987 35.9415 10.9678C35.9452 10.8136 35.8815 10.6645 35.7655 10.5619C35.6501 10.4593 35.4951 10.4129 35.3416 10.4346C29.2953 11.3123 24.1733 9.75006 20.5282 5.91697C20.4294 5.81287 20.2916 5.7537 20.1485 5.7537C20.0047 5.7537 19.8677 5.81287 19.7688 5.91697C16.1222 9.75006 10.9994 11.3116 4.95322 10.4346C4.79968 10.4121 4.64465 10.4586 4.52932 10.5619C4.41398 10.6645 4.34957 10.8136 4.35331 10.9678C4.45742 14.8294 5.32319 18.5621 6.92593 22.0672L6.13655 23.4332C3.89197 18.9036 2.8412 13.864 3.08011 8.7652H3.08161ZM28.2626 19.2481C27.8843 19.4661 27.6132 19.8196 27.5001 20.2435C27.3953 20.6352 27.4387 21.0419 27.6185 21.4006L26.2045 21.9788C26.0022 21.8582 25.836 21.7511 25.6839 21.6545C24.8316 21.1085 24.5223 20.964 23.0859 21.2591C22.7391 21.3302 22.4568 21.3811 22.2074 21.4268C21.6674 21.5249 21.3101 21.5893 20.9386 21.7466C20.6982 21.8485 20.4878 21.9593 20.3028 22.0776C18.9158 21.5646 18.1488 21.808 17.2696 22.0889C16.761 22.2514 16.1889 22.4334 15.3613 22.5023L12.8336 21.0486C12.9272 20.4038 12.6314 19.7357 12.0337 19.3897L9.8176 18.112C9.5667 17.9675 9.24616 18.0536 9.10161 18.3037L7.57826 20.9415C6.3088 17.9555 5.58532 14.8062 5.42655 11.5565C6.35823 11.6681 7.2682 11.7235 8.15644 11.7235C12.9107 11.7235 17.0052 10.129 20.15 7.0284C23.2933 10.129 27.3863 11.7235 32.1413 11.7235C33.0288 11.7235 33.9395 11.6681 34.8712 11.5565C34.7147 14.7747 34.0025 17.897 32.7547 20.8614L31.1962 18.1614C31.1265 18.0408 31.0119 17.9532 30.8779 17.9173C30.7438 17.8813 30.6 17.9 30.4802 17.9697L28.2641 19.2496L28.2626 19.2481ZM6.14104 29.5955L4.37878 28.5777L7.96247 22.372C7.96696 22.3645 7.97146 22.3563 7.97595 22.3488L9.74795 19.2803L11.5095 20.2959C11.7911 20.4592 11.8877 20.8209 11.7259 21.1025L6.9469 29.3798C6.78513 29.6614 6.42339 29.7573 6.14104 29.5955ZM11.3791 32.6445C11.0721 32.4048 11.0174 31.9584 11.2571 31.6506L12.2906 30.328C12.4299 30.1497 12.6389 30.0561 12.8493 30.0561C13.0021 30.0561 13.1564 30.1056 13.286 30.2067C13.4335 30.3213 13.5279 30.4883 13.5511 30.6763C13.5743 30.865 13.5234 31.0515 13.4073 31.1998L12.373 32.5231C12.2584 32.6707 12.0914 32.7651 11.9034 32.7883C11.7147 32.8122 11.5282 32.7606 11.3799 32.6445H11.3791ZM13.3241 34.1626C13.0163 33.9222 12.9609 33.4758 13.1998 33.1687L13.2425 33.1133L15.3935 30.3632C15.5328 30.1842 15.7417 30.0906 15.9529 30.0906C16.105 30.0906 16.2578 30.1393 16.3866 30.2389C16.6944 30.48 16.7491 30.9264 16.5094 31.2342L14.3187 34.0405C14.2027 34.1888 14.0341 34.2839 13.8454 34.3064C13.6567 34.3296 13.4724 34.2779 13.3249 34.1626H13.3241ZM15.2669 35.6807C15.1186 35.5646 15.0242 35.3968 15.001 35.2089C14.9778 35.0209 15.0287 34.8351 15.1448 34.6868L17.6688 31.4537C17.7848 31.3054 17.9526 31.211 18.1406 31.1878C18.1706 31.184 18.1998 31.1825 18.229 31.1825C18.3862 31.1825 18.5375 31.2342 18.6634 31.3331C18.8109 31.4477 18.9053 31.6147 18.9285 31.8027C18.9517 31.9914 18.9008 32.1779 18.7847 32.3262L16.2615 35.5586C16.0203 35.8664 15.574 35.9211 15.2669 35.6814V35.6807ZM17.2097 37.1988C17.0606 37.0827 16.9663 36.9142 16.9438 36.7247C16.9213 36.5367 16.9722 36.3517 17.0876 36.2042L18.3496 34.5895C18.4641 34.4419 18.6319 34.3476 18.8206 34.3244C18.8506 34.3206 18.8806 34.3191 18.9105 34.3191C19.0678 34.3191 19.2191 34.37 19.3419 34.4659C19.6497 34.7071 19.7044 35.1534 19.4647 35.4612L18.2043 37.076C17.9631 37.383 17.5167 37.4377 17.2097 37.1988ZM30.8726 31.6094C30.7446 31.8319 30.5363 31.9906 30.2854 32.0581C30.0346 32.1255 29.7739 32.091 29.5507 31.9629L28.47 31.3391L24.3216 28.9447C24.0707 28.8002 23.7502 28.8855 23.6056 29.1364C23.4611 29.3873 23.5465 29.7079 23.7974 29.8524L27.9345 32.2408C28.3764 32.5134 28.5247 33.1006 28.2656 33.5492C27.9974 34.012 27.4028 34.1716 26.9422 33.9057L25.9116 33.3088L25.9086 33.3073L23.4521 31.8895C23.2012 31.745 22.8807 31.8304 22.7361 32.0813C22.5916 32.3322 22.6769 32.6527 22.9278 32.7973L25.3836 34.215C25.845 34.4824 26.0037 35.0763 25.7379 35.5384C25.4712 36.0005 24.8766 36.1593 24.4137 35.8919L23.2798 35.2381L21.907 34.4442C21.6561 34.2989 21.3356 34.385 21.1903 34.6359C21.045 34.8868 21.1311 35.2074 21.382 35.3527L22.7556 36.1465C23.2154 36.4117 23.3727 37.0041 23.1068 37.4662C22.9788 37.6886 22.7698 37.8481 22.5189 37.9155C22.268 37.9829 22.0081 37.9485 21.785 37.8189L19.8325 36.6933L20.2908 36.1061C20.8855 35.3444 20.7499 34.2382 19.9867 33.6391C19.7913 33.487 19.5703 33.3807 19.3367 33.3223L19.6115 32.9703C19.9006 32.6003 20.0279 32.1397 19.9695 31.6723C19.9118 31.2058 19.6767 30.7908 19.3089 30.5047C18.9397 30.2164 18.4799 30.0891 18.0133 30.146C17.8755 30.1632 17.7429 30.1969 17.6163 30.2441C17.5115 29.9266 17.3145 29.6352 17.0322 29.4128C16.2667 28.8174 15.1606 28.9552 14.5666 29.7184L14.3974 29.9348C14.2835 29.7214 14.127 29.5319 13.9315 29.3798C13.1684 28.7829 12.0622 28.9192 11.4653 29.6824L10.5276 30.8815L8.26804 29.1889L12.4104 22.0132L14.9778 23.4894C15.0572 23.5351 15.1478 23.5591 15.2392 23.5591C15.2504 23.5591 15.2609 23.5591 15.2721 23.5583C16.3139 23.4924 17.0209 23.2677 17.5886 23.0865C18.2514 22.8753 18.7113 22.73 19.4408 22.9052C19.118 23.3905 18.9989 23.9178 18.9187 24.4128C18.8513 24.833 18.8169 25.2472 18.7832 25.6471C18.7195 26.414 18.6589 27.1383 18.381 27.8752C18.3233 28.0287 18.3406 28.2003 18.4274 28.3396C18.5151 28.4781 18.6619 28.5687 18.8251 28.583C21.7056 28.8376 22.1062 27.9666 22.8455 25.8553L30.5408 30.2995C30.7513 30.4284 30.9033 30.6313 30.9685 30.874C31.0359 31.1256 31.0014 31.387 30.8734 31.6102L30.8726 31.6094ZM30.9505 29.3244L22.8215 24.63C22.6867 24.5522 22.5234 24.5379 22.3774 24.5926C22.2313 24.6465 22.1167 24.7634 22.0651 24.9101C22.0186 25.042 21.9744 25.1685 21.9317 25.2906C21.5782 26.3047 21.3453 26.9742 20.9828 27.2813C20.7162 27.5075 20.2983 27.5996 19.5696 27.5786C19.7276 26.945 19.7785 26.3316 19.8287 25.734C19.8617 25.3355 19.8931 24.9596 19.9545 24.5791C20.1051 23.6482 20.3515 23.1314 21.3483 22.7113C21.6127 22.5997 21.907 22.5457 22.3953 22.4581C22.65 22.4117 22.9391 22.36 23.2986 22.2859C24.3808 22.0634 24.437 22.0994 25.12 22.5367C25.323 22.6671 25.5753 22.8288 25.9049 23.0168C26.0449 23.097 26.2142 23.1082 26.3632 23.0468L28.1442 22.3181L31.7773 28.6107L30.9513 29.3237L30.9505 29.3244ZM34.1567 29.4555C33.8751 29.618 33.5134 29.5206 33.3501 29.2398L32.9105 28.4789C32.906 28.4706 32.9015 28.4624 32.8963 28.4549L28.8362 21.4231C28.8265 21.4036 28.816 21.3849 28.804 21.3676L28.5704 20.9632C28.4925 20.8277 28.4715 20.6681 28.5127 20.5146C28.5539 20.3618 28.6505 20.2345 28.7861 20.1566L30.5483 19.1388L35.9175 28.4377L34.1552 29.4555H34.1567ZM22.3654 13.7224C22.5698 13.9269 22.5698 14.2594 22.3654 14.4639L19.8856 16.9436C19.7875 17.0418 19.6542 17.0972 19.5149 17.0972C19.3756 17.0972 19.2423 17.0418 19.1442 16.9436L17.9316 15.7311C17.7272 15.5266 17.7272 15.1941 17.9316 14.9897C18.1361 14.7852 18.4686 14.7852 18.6731 14.9897L19.5149 15.8315L21.6239 13.7224C21.8284 13.518 22.1609 13.518 22.3654 13.7224ZM20.15 10.4908C17.48 10.4908 15.3073 12.6634 15.3073 15.3334C15.3073 18.0034 17.48 20.1761 20.15 20.1761C22.82 20.1761 24.9927 18.0034 24.9927 15.3334C24.9927 12.6634 22.82 10.4908 20.15 10.4908ZM20.15 19.1268C18.0582 19.1268 16.3559 17.4252 16.3559 15.3327C16.3559 13.2401 18.0575 11.5393 20.15 11.5393C22.2426 11.5393 23.9434 13.2409 23.9434 15.3327C23.9434 17.4245 22.2418 19.1268 20.15 19.1268Z" fill="#45474B"/>
</svg>
