<svg id="Layer_1" enable-background="new 0 0 283.46 283.46" viewBox="0 0 283.46 283.46" xmlns="http://www.w3.org/2000/svg" width="300" height="300" version="1.1" xmlns:xlink="http://www.w3.org/1999/xlink" xmlns:svgjs="http://svgjs.dev/svgjs"><g width="100%" height="100%" transform="matrix(1,0,0,1,0,0)"><g clip-rule="evenodd" fill-rule="evenodd"><path d="m148.41 233.44 85.68-87.75c2.15-2.2 2.15-5.72 0-7.92l-85.68-87.75c-1.11-1.13-2.47-1.71-4.06-1.71h-75.37c-2.33 0-4.32 1.32-5.22 3.47s-.46 4.49 1.17 6.16l81.82 83.79-81.82 83.79c-1.63 1.67-2.07 4.01-1.17 6.16s2.89 3.47 5.22 3.47h75.37c1.59 0 2.95-.57 4.06-1.71zm-8.24-13.88 76-77.83-76-77.83h-47.64l72.13 73.87c2.15 2.2 2.15 5.72 0 7.92l-72.13 73.87z" fill="#e57025" fill-opacity="1" data-original-color="#000000ff" stroke="none" stroke-opacity="1"/><path d="m77.25 173.58-27.84-27.84c-2.21-2.21-2.21-5.81 0-8.02l27.84-27.84c2.21-2.21 5.81-2.21 8.02 0l27.83 27.84c2.21 2.21 2.21 5.81 0 8.02l-27.83 27.84c-2.21 2.2-5.81 2.2-8.02 0zm4.01-18.06 13.78-13.78-13.78-13.78-13.78 13.78z" fill="#e57025" fill-opacity="1" data-original-color="#000000ff" stroke="none" stroke-opacity="1"/></g></g></svg>